:SAMPLES-PER-SECOND 30
:FULLY-SPECIFIED
:DEGREES
760
root  79.2285 39.1907 -0.50675 -153.998 -85.4136 156.287
RightUpLeg  -4.39987 -7.15651 -0.310289
RightLeg  12.1606 7.76431 2.24539
RightFoot  -6.81275 0.171741 -5.50003
RightToes  3.49245e-010 0 -3.6325e-017
Spine  1.36232 -0.385091 5.24018
Spine1  6.22668 0.0162936 -0.757753
HEad  -11.4816 -26.5245 8.22803
LeftShoulder1  -0.0202202 3.55737 -31.7398
LeftArm  -6.02714 7.55898 -39.388
LeftForeArm  26.037 -35.9853 -6.58394
LeftHand  0.0240951 7.03254 4.04448
RightShoulder  -0.693071 -5.46799 28.6065
RightArm  13.9974 1.81484 41.6592
RightForeArm  6.97556 22.4951 4.52042
RightHand  -0.307985 7.17594 -3.19583
LeftUpLeg  -1.25789 4.82563 5.41803
LeftLeg  6.80482 -3.96018 0.800838
LeftFoot  -7.87872 0.206804 -5.27574
LeftToes  -5.6298e-010 8.41567e-011 -1.83319e-011
761
root  79.1799 39.2336 -0.503787 -153.369 -85.491 155.423
RightUpLeg  -3.99419 -7.16402 -0.417777
RightLeg  11.9934 7.66154 2.18442
RightFoot  -6.60224 0.170577 -5.19552
RightToes  3.49245e-010 0 -3.6325e-017
Spine  1.95855 -0.333639 4.77021
Spine1  5.51217 -0.0222103 -0.370554
HEad  -10.9762 -26.5912 7.96272
LeftShoulder1  -0.0393044 3.60682 -32.0111
LeftArm  -5.04246 7.64141 -39.7641
LeftForeArm  28.9658 -39.4573 -7.38137
LeftHand  0.00210791 6.32454 3.85415
RightShoulder  -0.692496 -5.46443 28.6386
RightArm  14.3054 1.91819 41.6864
RightForeArm  7.40357 24.3993 4.82704
RightHand  -0.373332 7.00676 -3.84232
LeftUpLeg  -0.225222 5.29216 4.85602
LeftLeg  5.63044 -3.77338 0.879506
LeftFoot  -7.53634 0.194066 -4.53114
LeftToes  -5.6298e-010 8.41567e-011 -1.83319e-011
762
root  79.089 39.2831 -0.486968 -154.744 -85.9535 156.906
RightUpLeg  -3.77897 -7.04427 -0.227667
RightLeg  11.6891 7.49919 2.20876
RightFoot  -6.19067 0.182489 -4.98015
RightToes  3.49245e-010 0 -3.6325e-017
Spine  1.18631 -0.333314 4.7181
Spine1  5.99768 -0.145326 -0.106025
HEad  -10.8391 -26.4434 7.88727
LeftShoulder1  -0.0686589 3.68306 -32.2213
LeftArm  -4.05352 7.77724 -40.2571
LeftForeArm  31.5503 -42.0966 -8.01947
LeftHand  -0.0346396 5.11451 3.88648
RightShoulder  -0.715561 -5.5336 28.5857
RightArm  14.7566 2.23164 42.1704
RightForeArm  7.95128 25.2047 4.98509
RightHand  -0.357059 6.88707 -3.72135
LeftUpLeg  0.41741 5.55245 4.62298
LeftLeg  4.23722 -2.84439 1.28228
LeftFoot  -6.83422 0.155422 -2.88589
LeftToes  -5.6298e-010 8.41567e-011 -1.83319e-011
763
root  79.0355 39.291 -0.461872 -153.367 -86.7257 155.441
RightUpLeg  -3.48565 -6.99611 -0.0771061
RightLeg  11.5966 6.9028 2.14708
RightFoot  -6.18072 0.169725 -4.68807
RightToes  3.49245e-010 0 -3.6325e-017
Spine  0.836978 -0.503804 4.58191
Spine1  6.23218 -0.387594 0.102538
HEad  -10.4557 -26.5936 7.72597
LeftShoulder1  -0.0997514 3.76431 -32.1214
LeftArm  -2.78262 7.9428 -40.8374
LeftForeArm  32.2109 -43.5802 -8.46361
LeftHand  -0.0612567 4.46479 5.37602
RightShoulder  -0.69337 -5.47022 28.58
RightArm  14.726 2.03376 42.8671
RightForeArm  8.05658 25.5402 5.05422
RightHand  -0.354319 7.22972 -3.60832
LeftUpLeg  0.860518 5.48289 4.6335
LeftLeg  3.42496 -2.76398 1.6466
LeftFoot  -6.6132 0.14692 -2.59319
LeftToes  -5.6298e-010 8.41567e-011 -1.83319e-011
764
root  79.0172 39.2955 -0.452656 -146.487 -87.7666 148.675
RightUpLeg  -3.41949 -6.75054 0.203061
RightLeg  11.3905 5.75645 1.88475
RightFoot  -6.19702 0.154778 -4.36846
RightToes  3.49245e-010 0 -3.6325e-017
Spine  0.732111 -0.694039 3.8515
Spine1  5.95957 -0.810348 0.945517
HEad  -10.4071 -26.7328 7.83811
LeftShoulder1  -0.138902 3.86336 -32.512
LeftArm  -0.833908 8.28764 -40.7744
LeftForeArm  31.8322 -44.606 -8.83492
LeftHand  -0.0622947 4.56646 6.40457
RightShoulder  -0.719825 -5.52914 28.8732
RightArm  14.9306 1.61362 43.3352
RightForeArm  8.58179 25.3326 4.97972
RightHand  -0.30194 7.55725 -3.07469
LeftUpLeg  0.446846 5.59428 4.91988
LeftLeg  3.66848 -4.1896 1.64584
LeftFoot  -6.26223 0.165523 -2.88293
LeftToes  -5.6298e-010 8.41567e-011 -1.83319e-011
765
root  78.9662 39.3072 -0.401008 -135.619 -88.3053 137.61
RightUpLeg  -2.96129 -6.77342 0.134218
RightLeg  11.1409 5.19569 1.71989
RightFoot  -6.21145 0.142468 -4.15875
RightToes  3.49245e-010 0 -3.6325e-017
Spine  -0.0938509 -0.64742 3.87561
Spine1  7.18129 -0.712265 0.627486
HEad  -10.8166 -27.3724 8.3536
LeftShoulder1  -0.0972117 3.75661 -32.341
LeftArm  0.685353 8.20004 -40.9977
LeftForeArm  31.3451 -43.9275 -8.63853
LeftHand  -0.100211 3.32962 4.73534
RightShoulder  -0.766317 -5.63835 29.2528
RightArm  15.4069 1.49062 44.2298
RightForeArm  7.66906 24.0643 4.74495
RightHand  -0.310472 8.43077 -2.98904
LeftUpLeg  0.783435 5.94051 5.06453
LeftLeg  3.31584 -5.32184 1.3825
LeftFoot  -5.93788 0.183466 -3.13382
LeftToes  -5.6298e-010 8.41567e-011 -1.83319e-011
766
root  78.9024 39.3317 -0.339419 -132.689 -88.3822 134.362
RightUpLeg  -2.34308 -6.57327 0.121618
RightLeg  10.7869 4.89685 1.39433
RightFoot  -6.16013 0.124111 -3.8637
RightToes  3.49245e-010 0 -3.6325e-017
Spine  0.370796 -0.385322 4.12717
Spine1  6.37483 -0.285947 0.0629551
HEad  -10.2269 -28.1425 8.06724
LeftShoulder1  -0.107816 3.78273 -32.5354
LeftArm  2.58256 8.7862 -40.6182
LeftForeArm  30.3423 -42.0775 -8.09751
LeftHand  -0.137432 2.78758 5.09559
RightShoulder  -0.807822 -5.73261 29.6205
RightArm  17.5394 0.593608 44.8496
RightForeArm  6.89935 22.4748 4.5524
RightHand  -0.305294 7.13626 -3.17749
LeftUpLeg  1.40803 6.00187 4.98841
LeftLeg  2.88814 -5.50961 1.44342
LeftFoot  -5.61608 0.181058 -2.94652
LeftToes  -5.6298e-010 8.41567e-011 -1.83319e-011
767
root  78.8454 39.3271 -0.252269 -136.929 -88.4934 138.313
RightUpLeg  -1.86979 -6.68788 0.070923
RightLeg  10.687 4.93812 1.41691
RightFoot  -6.27704 0.111273 -3.6617
RightToes  3.49245e-010 0 -3.6325e-017
Spine  0.478098 -0.104942 4.39603
Spine1  5.91128 0.0585459 -0.0733904
HEad  -9.39687 -28.5064 7.45182
LeftShoulder1  -0.11911 3.81 -32.787
LeftArm  4.51642 9.50817 -40.4199
LeftForeArm  27.783 -39.3206 -7.41621
LeftHand  0.103864 6.52228 6.67794
RightShoulder  -0.794143 -5.67949 29.8594
RightArm  19.4763 -0.118868 45.4327
RightForeArm  5.99778 19.9744 4.77315
RightHand  -0.333626 7.43308 -3.37519
LeftUpLeg  1.9312 5.87862 4.87204
LeftLeg  2.4884 -5.09886 1.68218
LeftFoot  -5.55442 0.154747 -2.40145
LeftToes  -5.6298e-010 8.41567e-011 -1.83319e-011
